<svg xmlns="http://www.w3.org/2000/svg" fill="none" viewBox="0.75 0 94.9 73.06"><path d="M79.3286 67.0905C79.3286 63.7913 82.0031 61.1167 85.3024 61.1167C88.6016 61.1167 91.2762 63.7913 91.2762 67.0905C91.2762 70.3898 88.6016 73.0643 85.3024 73.0643C82.0031 73.0643 79.3286 70.3898 79.3286 67.0905Z" fill="#308DFF"></path><path fill-rule="evenodd" clip-rule="evenodd" d="M0.749998 28.5398L0.75 72.8132L20.2798 72.8132L20.2798 30.5253C23.3666 20.9231 36.9524 20.9231 40.0393 30.5253L40.0393 72.8132L57.2714 72.8132L57.8273 28.9011C58.0275 13.0798 45.3184 0.115278 29.4963 0.0007922C13.6539 -0.113839 0.749997 12.697 0.749998 28.5398Z" fill="#308DFF"></path><path d="M39.8095 73.0204L39.8095 28.1227C39.8095 12.624 52.4331 0.0913462 67.9314 0.20349C83.8865 0.318937 96.5004 13.7584 95.6054 29.6888L94.6464 46.7585C94.3024 52.8814 89.237 57.6702 83.1044 57.6702L79.0988 57.6702L79.0988 30.7325C76.0119 21.1303 62.4261 21.1303 59.3393 30.7325L59.3393 73.0204L39.8095 73.0204Z" fill="#308DFF"></path></svg>
