<svg version="1.2" xmlns="http://www.w3.org/2000/svg" viewBox="0 0 1556 704" width="1556" height="704">
	<title>Cloudflare-logo-vector-svg</title>
	<style>
		.s0 { fill: #ffffff } 
		.s1 { fill: #f48120 } 
		.s2 { fill: #faad3f } 
	</style>
	<path id="Layer" class="s0" d="m1410.8 697.3l-1042-3.2v-400.3l829.1-6.5l32.3 12.9l180.6 42z"/>
	<path id="Layer" class="s1" d="m1062.4 694.1c0 6.4-6.4 9.6-12.9 9.6h-1035.5q-1.9-0.1-3.7-0.8q-1.7-0.8-3-2.2q-1.4-1.3-2.1-3q-0.8-1.8-0.9-3.6q-1-4.4-1.7-8.8q-0.7-4.4-1.1-8.9q-0.4-4.4-0.5-8.9q-0.1-4.5 0.1-9c-0.1-30.4 5.8-60.5 17.3-88.7c11.4-28.1 28.2-53.8 49.3-75.6c21.2-21.8 46.4-39.3 74.3-51.5c27.8-12.3 57.7-19 88.1-19.8q-1.6-7.1-2.6-14.4q-1-7.2-1.4-14.5q-0.4-7.3-0.2-14.6q0.2-7.3 1-14.6c2.1-18.8 7.3-37.2 15.5-54.3c8.2-17 19.3-32.6 32.7-46c13.3-13.4 28.9-24.4 46-32.6c17-8.2 35.4-13.5 54.2-15.6c10.2-0.8 20.5-0.7 30.7 0.3c10.2 1 20.3 2.8 30.2 5.6c9.9 2.7 19.5 6.3 28.8 10.8c9.2 4.4 18.1 9.6 26.4 15.6c26-75.8 76-141.1 142.4-185.8c66.4-44.8 145.6-66.6 225.5-62.2c79.9 4.3 156.3 34.7 217.4 86.5c61.1 51.7 103.7 122 121.2 200.2c3.2 3.2 0 6.5 0 9.7l-32.3 83.9c-7 16.6-16.1 32.1-27.2 46.2c-11.1 14.2-24 26.8-38.4 37.5c-14.4 10.7-30.1 19.5-46.8 26.1c-16.7 6.6-34.2 10.9-52.1 12.9l-564.5 6.5c-6.5 0-9.7 3.2-12.9 9.6c-0.8 0.6-1.4 1.3-1.8 2.2c-0.4 0.8-0.7 1.7-0.7 2.7c0 0.9 0.3 1.8 0.7 2.7c0.4 0.8 1 1.6 1.8 2.1c3.2 0 6.4 3.2 9.6 3.2l561.4 6.5c6.5 0.6 12.9 1.8 19.2 3.7c6.3 1.8 12.4 4.3 18.2 7.3c5.8 3.1 11.3 6.7 16.4 10.8c5 4.1 9.7 8.7 13.9 13.7c4.1 6.1 7.4 12.6 10 19.5c2.5 6.9 4.2 14 5 21.3c0.9 7.3 0.8 14.6-0.1 21.9c-0.9 7.3-2.6 14.4-5.2 21.2z"/>
	<path id="Layer" class="s2" d="m1366.5 320.9c37.1 15.5 70.8 38.1 99.2 66.5c28.4 28.4 51 62.1 66.4 99.2c15.5 37.1 23.6 76.9 23.9 117.1q-0.3 10.6-1.3 21.2q-1 10.6-2.6 21.1q-1.6 10.5-3.9 21q-2.2 10.4-5.1 20.6c0.2 1.3 0.1 2.7-0.4 3.9c-0.4 1.3-1.1 2.4-2 3.4c-1 0.9-2.1 1.6-3.4 2c-1.2 0.5-2.6 0.6-3.9 0.4h-425.8c-6.5 0-9.7-6.5-6.5-9.7l6.5-29.1c7-16.5 16.1-32 27.2-46.2c11.1-14.1 24-26.7 38.4-37.4c14.4-10.8 30.2-19.5 46.9-26.1c16.7-6.6 34.2-10.9 52-12.9l122.6-6.5c6.4 0 9.7-3.2 12.9-9.7c0.7-0.5 1.4-1.3 1.8-2.1c0.4-0.8 0.6-1.8 0.6-2.7c0-0.9-0.2-1.9-0.6-2.7c-0.4-0.9-1.1-1.6-1.8-2.1c-3.2 0-6.5-3.3-9.7-3.3l-119.3-6.4c-6.6-0.6-13-1.8-19.3-3.7c-6.3-1.8-12.4-4.3-18.1-7.3c-5.8-3.1-11.3-6.7-16.4-10.8c-5.1-4.1-9.8-8.7-14-13.7c-4.1-6.1-7.4-12.7-9.9-19.5c-2.6-6.9-4.3-14.1-5.1-21.3c-0.8-7.3-0.8-14.7 0.1-21.9c0.9-7.3 2.6-14.4 5.2-21.3l22.6-77.5c3.2-3.2 6.5-6.4 9.7-6.4h16.1c40.2 0.2 79.9 8.4 117 23.9z"/>
</svg>