<svg version="1.2" xmlns="http://www.w3.org/2000/svg" viewBox="0 0 1470 1580" width="1470" height="1580">
	<title>download (5)-svg</title>
	<style>
		.s0 { fill: #ff282d } 
	</style>
	<path id="Layer" class="s0" d="m755.6 864.3c1.9 6.2 3 12.8 3 19.7 0 36.2-28.6 65.5-63.8 65.5-35.2 0-63.7-29.3-63.7-65.5 0-36.2 28.5-65.6 63.7-65.6 7.4 0 14.4 1.4 21 3.8l130.5-113.8 25.7 25.7z"/>
	<path id="Layer" fill-rule="evenodd" class="s0" d="m1470 1241.9v337.7h-356.7l-60.9-99.3c-104.4 62.9-226.8 99.2-357.6 99.2-383.4 0-694.2-310.9-694.2-694.3 0-340.3 244.8-623.2 567.8-682.7h-2.4v-116.6h-41.2v-85.8h340.1v85.8h-41.3v116.6h-1.9c82.6 15.3 160.1 45.2 229.6 86.9v-98.6h337.8l0.2 1051.1c0 0 80.7 0 80.7 0zm-418.6-326v-11.1h-40.5v-40.5h40.5v-11.6c-15.4-176.1-158.6-315.6-336.4-325.1v39.9h-40.5v-39.8c-180.3 10.5-324.7 154.8-335.4 335.1h40v40.5h-40.2c9.4 181.6 154.4 327.2 335.6 337.8v-39.6h40.5v39.7c177.8-9.5 321.1-149.1 336.4-325.3z"/>
</svg>