<?xml version="1.0" encoding="UTF-8"?>
<!-- This file is generated by npm run build:icons -->
<svg xmlns="http://www.w3.org/2000/svg" xmlns:xlink="http://www.w3.org/1999/xlink" width="0" height="0">
<defs>
<symbol stroke-width="1.5" viewBox="0 0 24 24" fill="none" id="add-circle">
<path d="M8 12H12M16 12H12M12 12V8M12 12V16" stroke="currentColor" stroke-linecap="round" stroke-linejoin="round"></path>
<path d="M12 22C17.5228 22 22 17.5228 22 12C22 6.47715 17.5228 2 12 2C6.47715 2 2 6.47715 2 12C2 17.5228 6.47715 22 12 22Z" stroke="currentColor" stroke-linecap="round" stroke-linejoin="round"></path>
</symbol>
<symbol xml:space="preserve" viewBox="0 0 16 16" id="add"><path fill-rule="evenodd" d="M10.99 6.99h-2v-2c0-.55-.45-1-1-1s-1 .45-1 1v2h-2c-.55 0-1 .45-1 1s.45 1 1 1h2v2c0 .55.45 1 1 1s1-.45 1-1v-2h2c.55 0 1-.45 1-1s-.45-1-1-1zm-3-7c-4.42 0-8 3.58-8 8s3.58 8 8 8 8-3.58 8-8-3.58-8-8-8zm0 14c-3.31 0-6-2.69-6-6s2.69-6 6-6 6 2.69 6 6-2.68 6-6 6z" clip-rule="evenodd"></path></symbol>
<symbol viewBox="0 0 15 15" fill="none" id="arrow-left">
  <path     fill-rule="evenodd"
    clip-rule="evenodd"
    d="M6.85355 3.14645C7.04882 3.34171 7.04882 3.65829 6.85355 3.85355L3.70711 7H12.5C12.7761 7 13 7.22386 13 7.5C13 7.77614 12.7761 8 12.5 8H3.70711L6.85355 11.1464C7.04882 11.3417 7.04882 11.6583 6.85355 11.8536C6.65829 12.0488 6.34171 12.0488 6.14645 11.8536L2.14645 7.85355C1.95118 7.65829 1.95118 7.34171 2.14645 7.14645L6.14645 3.14645C6.34171 2.95118 6.65829 2.95118 6.85355 3.14645Z"
    fill="currentColor"
  ></path>
</symbol>
<symbol viewBox="0 0 15 15" fill="none" id="arrow-right">
  <path     fill-rule="evenodd"
    clip-rule="evenodd"
    d="M8.14645 3.14645C8.34171 2.95118 8.65829 2.95118 8.85355 3.14645L12.8536 7.14645C13.0488 7.34171 13.0488 7.65829 12.8536 7.85355L8.85355 11.8536C8.65829 12.0488 8.34171 12.0488 8.14645 11.8536C7.95118 11.6583 7.95118 11.3417 8.14645 11.1464L11.2929 8H2.5C2.22386 8 2 7.77614 2 7.5C2 7.22386 2.22386 7 2.5 7H11.2929L8.14645 3.85355C7.95118 3.65829 7.95118 3.34171 8.14645 3.14645Z"
    fill="currentColor"
  ></path>
</symbol>
<symbol viewBox="0 0 24 24" fill="none" stroke="currentColor" stroke-width="2" stroke-linecap="round" stroke-linejoin="round" id="badge-plus">
  <path     d="M3.85 8.62a4 4 0 0 1 4.78-4.77 4 4 0 0 1 6.74 0 4 4 0 0 1 4.78 4.78 4 4 0 0 1 0 6.74 4 4 0 0 1-4.77 4.78 4 4 0 0 1-6.75 0 4 4 0 0 1-4.78-4.77 4 4 0 0 1 0-6.76Z"
  ></path>
  <line x1="12" x2="12" y1="8" y2="16"></line>
  <line x1="8" x2="16" y1="12" y2="12"></line>
</symbol>
<symbol viewBox="0 0 15 15" fill="none" id="check">
  <path     fill-rule="evenodd"
    clip-rule="evenodd"
    d="M11.4669 3.72684C11.7558 3.91574 11.8369 4.30308 11.648 4.59198L7.39799 11.092C7.29783 11.2452 7.13556 11.3467 6.95402 11.3699C6.77247 11.3931 6.58989 11.3355 6.45446 11.2124L3.70446 8.71241C3.44905 8.48022 3.43023 8.08494 3.66242 7.82953C3.89461 7.57412 4.28989 7.55529 4.5453 7.78749L6.75292 9.79441L10.6018 3.90792C10.7907 3.61902 11.178 3.53795 11.4669 3.72684Z"
    fill="currentColor"
  ></path>
</symbol>
<symbol viewBox="0 0 15 15" fill="none" id="chevron-down">
  <path     fill-rule="evenodd"
    clip-rule="evenodd"
    d="M3.13523 6.15803C3.3241 5.95657 3.64052 5.94637 3.84197 6.13523L7.5 9.56464L11.158 6.13523C11.3595 5.94637 11.6759 5.95657 11.8648 6.15803C12.0536 6.35949 12.0434 6.67591 11.842 6.86477L7.84197 10.6148C7.64964 10.7951 7.35036 10.7951 7.15803 10.6148L3.15803 6.86477C2.95657 6.67591 2.94637 6.35949 3.13523 6.15803Z"
    fill="currentColor"
  ></path>
</symbol>
<symbol viewBox="0 0 15 15" fill="none" id="chevron-right">
  <path     fill-rule="evenodd"
    clip-rule="evenodd"
    d="M6.1584 3.13508C6.35985 2.94621 6.67627 2.95642 6.86514 3.15788L10.6151 7.15788C10.7954 7.3502 10.7954 7.64949 10.6151 7.84182L6.86514 11.8418C6.67627 12.0433 6.35985 12.0535 6.1584 11.8646C5.95694 11.6757 5.94673 11.3593 6.1356 11.1579L9.565 7.49985L6.1356 3.84182C5.94673 3.64036 5.95694 3.32394 6.1584 3.13508Z"
    fill="currentColor"
  ></path>
</symbol>
<symbol viewBox="0 0 15 15" fill="none" id="chevron-up">
  <path     fill-rule="evenodd"
    clip-rule="evenodd"
    d="M3.13523 8.84197C3.3241 9.04343 3.64052 9.05363 3.84197 8.86477L7.5 5.43536L11.158 8.86477C11.3595 9.05363 11.6759 9.04343 11.8648 8.84197C12.0536 8.64051 12.0434 8.32409 11.842 8.13523L7.84197 4.38523C7.64964 4.20492 7.35036 4.20492 7.15803 4.38523L3.15803 8.13523C2.95657 8.32409 2.94637 8.64051 3.13523 8.84197Z"
    fill="currentColor"
  ></path>
</symbol>
<symbol viewBox="0 0 15 15" fill="none" id="clipboard-copy">
  <path     fill-rule="evenodd"
    clip-rule="evenodd"
    d="M5 2V1H10V2H5ZM4.75 0C4.33579 0 4 0.335786 4 0.75V1H3.5C2.67157 1 2 1.67157 2 2.5V12.5C2 13.3284 2.67157 14 3.5 14H7V13H3.5C3.22386 13 3 12.7761 3 12.5V2.5C3 2.22386 3.22386 2 3.5 2H4V2.25C4 2.66421 4.33579 3 4.75 3H10.25C10.6642 3 11 2.66421 11 2.25V2H11.5C11.7761 2 12 2.22386 12 2.5V7H13V2.5C13 1.67157 12.3284 1 11.5 1H11V0.75C11 0.335786 10.6642 0 10.25 0H4.75ZM9 8.5C9 8.77614 8.77614 9 8.5 9C8.22386 9 8 8.77614 8 8.5C8 8.22386 8.22386 8 8.5 8C8.77614 8 9 8.22386 9 8.5ZM10.5 9C10.7761 9 11 8.77614 11 8.5C11 8.22386 10.7761 8 10.5 8C10.2239 8 10 8.22386 10 8.5C10 8.77614 10.2239 9 10.5 9ZM13 8.5C13 8.77614 12.7761 9 12.5 9C12.2239 9 12 8.77614 12 8.5C12 8.22386 12.2239 8 12.5 8C12.7761 8 13 8.22386 13 8.5ZM14.5 9C14.7761 9 15 8.77614 15 8.5C15 8.22386 14.7761 8 14.5 8C14.2239 8 14 8.22386 14 8.5C14 8.77614 14.2239 9 14.5 9ZM15 10.5C15 10.7761 14.7761 11 14.5 11C14.2239 11 14 10.7761 14 10.5C14 10.2239 14.2239 10 14.5 10C14.7761 10 15 10.2239 15 10.5ZM14.5 13C14.7761 13 15 12.7761 15 12.5C15 12.2239 14.7761 12 14.5 12C14.2239 12 14 12.2239 14 12.5C14 12.7761 14.2239 13 14.5 13ZM14.5 15C14.7761 15 15 14.7761 15 14.5C15 14.2239 14.7761 14 14.5 14C14.2239 14 14 14.2239 14 14.5C14 14.7761 14.2239 15 14.5 15ZM8.5 11C8.77614 11 9 10.7761 9 10.5C9 10.2239 8.77614 10 8.5 10C8.22386 10 8 10.2239 8 10.5C8 10.7761 8.22386 11 8.5 11ZM9 12.5C9 12.7761 8.77614 13 8.5 13C8.22386 13 8 12.7761 8 12.5C8 12.2239 8.22386 12 8.5 12C8.77614 12 9 12.2239 9 12.5ZM8.5 15C8.77614 15 9 14.7761 9 14.5C9 14.2239 8.77614 14 8.5 14C8.22386 14 8 14.2239 8 14.5C8 14.7761 8.22386 15 8.5 15ZM11 14.5C11 14.7761 10.7761 15 10.5 15C10.2239 15 10 14.7761 10 14.5C10 14.2239 10.2239 14 10.5 14C10.7761 14 11 14.2239 11 14.5ZM12.5 15C12.7761 15 13 14.7761 13 14.5C13 14.2239 12.7761 14 12.5 14C12.2239 14 12 14.2239 12 14.5C12 14.7761 12.2239 15 12.5 15Z"
    fill="currentColor"
  ></path>
</symbol>
<symbol viewBox="0 0 15 15" fill="none" id="cross-2">
  <path     fill-rule="evenodd"
    clip-rule="evenodd"
    d="M11.7816 4.03157C12.0062 3.80702 12.0062 3.44295 11.7816 3.2184C11.5571 2.99385 11.193 2.99385 10.9685 3.2184L7.50005 6.68682L4.03164 3.2184C3.80708 2.99385 3.44301 2.99385 3.21846 3.2184C2.99391 3.44295 2.99391 3.80702 3.21846 4.03157L6.68688 7.49999L3.21846 10.9684C2.99391 11.193 2.99391 11.557 3.21846 11.7816C3.44301 12.0061 3.80708 12.0061 4.03164 11.7816L7.50005 8.31316L10.9685 11.7816C11.193 12.0061 11.5571 12.0061 11.7816 11.7816C12.0062 11.557 12.0062 11.193 11.7816 10.9684L8.31322 7.49999L11.7816 4.03157Z"
    fill="currentColor"
  ></path>
</symbol>
<symbol viewBox="0 0 15 15" fill="none" id="cross-circled">
  <path     fill-rule="evenodd"
    clip-rule="evenodd"
    d="M0.877075 7.49988C0.877075 3.84219 3.84222 0.877045 7.49991 0.877045C11.1576 0.877045 14.1227 3.84219 14.1227 7.49988C14.1227 11.1575 11.1576 14.1227 7.49991 14.1227C3.84222 14.1227 0.877075 11.1575 0.877075 7.49988ZM7.49991 1.82704C4.36689 1.82704 1.82708 4.36686 1.82708 7.49988C1.82708 10.6329 4.36689 13.1727 7.49991 13.1727C10.6329 13.1727 13.1727 10.6329 13.1727 7.49988C13.1727 4.36686 10.6329 1.82704 7.49991 1.82704ZM9.85358 5.14644C10.0488 5.3417 10.0488 5.65829 9.85358 5.85355L8.20713 7.49999L9.85358 9.14644C10.0488 9.3417 10.0488 9.65829 9.85358 9.85355C9.65832 10.0488 9.34173 10.0488 9.14647 9.85355L7.50002 8.2071L5.85358 9.85355C5.65832 10.0488 5.34173 10.0488 5.14647 9.85355C4.95121 9.65829 4.95121 9.3417 5.14647 9.14644L6.79292 7.49999L5.14647 5.85355C4.95121 5.65829 4.95121 5.3417 5.14647 5.14644C5.34173 4.95118 5.65832 4.95118 5.85358 5.14644L7.50002 6.79289L9.14647 5.14644C9.34173 4.95118 9.65832 4.95118 9.85358 5.14644Z"
    fill="currentColor"
  ></path>
</symbol>
<symbol viewBox="0 0 24 24" fill="none" stroke="currentColor" stroke-width="2" stroke-linecap="round" stroke-linejoin="round" id="cross">
  <path     d="M11 2a2 2 0 0 0-2 2v5H4a2 2 0 0 0-2 2v2c0 1.1.9 2 2 2h5v5c0 1.1.9 2 2 2h2a2 2 0 0 0 2-2v-5h5a2 2 0 0 0 2-2v-2a2 2 0 0 0-2-2h-5V4a2 2 0 0 0-2-2h-2z"
  ></path>
</symbol>
<symbol viewBox="0 0 24 24" fill="none" stroke="currentColor" stroke-width="2" stroke-linecap="round" stroke-linejoin="round" id="delete">
  <path d="M20 5H9l-7 7 7 7h11a2 2 0 0 0 2-2V7a2 2 0 0 0-2-2Z"></path>
  <line x1="18" x2="12" y1="9" y2="15"></line>
  <line x1="12" x2="18" y1="9" y2="15"></line>
</symbol>
<symbol viewBox="0 0 15 15" fill="none" id="double-arrow-left">
  <path     fill-rule="evenodd"
    clip-rule="evenodd"
    d="M6.85355 3.85355C7.04882 3.65829 7.04882 3.34171 6.85355 3.14645C6.65829 2.95118 6.34171 2.95118 6.14645 3.14645L2.14645 7.14645C1.95118 7.34171 1.95118 7.65829 2.14645 7.85355L6.14645 11.8536C6.34171 12.0488 6.65829 12.0488 6.85355 11.8536C7.04882 11.6583 7.04882 11.3417 6.85355 11.1464L3.20711 7.5L6.85355 3.85355ZM12.8536 3.85355C13.0488 3.65829 13.0488 3.34171 12.8536 3.14645C12.6583 2.95118 12.3417 2.95118 12.1464 3.14645L8.14645 7.14645C7.95118 7.34171 7.95118 7.65829 8.14645 7.85355L12.1464 11.8536C12.3417 12.0488 12.6583 12.0488 12.8536 11.8536C13.0488 11.6583 13.0488 11.3417 12.8536 11.1464L9.20711 7.5L12.8536 3.85355Z"
    fill="currentColor"
  ></path>
</symbol>
<symbol viewBox="0 0 15 15" fill="none" id="double-arrow-right">
  <path     fill-rule="evenodd"
    clip-rule="evenodd"
    d="M2.14645 11.1464C1.95118 11.3417 1.95118 11.6583 2.14645 11.8536C2.34171 12.0488 2.65829 12.0488 2.85355 11.8536L6.85355 7.85355C7.04882 7.65829 7.04882 7.34171 6.85355 7.14645L2.85355 3.14645C2.65829 2.95118 2.34171 2.95118 2.14645 3.14645C1.95118 3.34171 1.95118 3.65829 2.14645 3.85355L5.79289 7.5L2.14645 11.1464ZM8.14645 11.1464C7.95118 11.3417 7.95118 11.6583 8.14645 11.8536C8.34171 12.0488 8.65829 12.0488 8.85355 11.8536L12.8536 7.85355C13.0488 7.65829 13.0488 7.34171 12.8536 7.14645L8.85355 3.14645C8.65829 2.95118 8.34171 2.95118 8.14645 3.14645C7.95118 3.34171 7.95118 3.65829 8.14645 3.85355L11.7929 7.5L8.14645 11.1464Z"
    fill="currentColor"
  ></path>
</symbol>
<symbol viewBox="0 0 33 34" id="egghead"><g fill="none"><path fill="#FFF" d="M16.556,33.9840112 C9.666,33.993 3.984,28.592 3.641,21.711 L3.641,21.686 C2.38330604,21.5276246 1.35108978,20.6148613 1.04,19.386 C0.679,17.972 0.19,15.86 0.132,13.83 C0.0943730103,12.6557373 0.771608539,11.5756395 1.845,11.098 C2.899,10.625 4.402,10.238 6.297,9.945 C7.357,7.495 8.608,5.365 9.931,3.76 C11.992,1.265 14.221,0 16.556,0 C18.891,0 21.118,1.265 23.176,3.761 C24.493,5.366 25.749,7.493 26.807,9.938 C28.689,10.222 30.19,10.611 31.273,11.093 C32.3458049,11.568777 33.0234964,12.6469944 32.987,13.82 C32.929,15.861 32.441,17.974 32.08,19.385 C31.7694332,20.6162666 30.7350536,21.5307296 29.475,21.688 L29.475,21.711 C29.1224003,28.5910063 23.4390344,33.9872358 16.55,33.983 L16.555,33.9840112 L16.556,33.9840112 Z"></path><path fill="#FCFBFA" d="M16.548,2.15 C22.531,2.15 27.382,15.01 27.382,20.994 C27.382,26.978 22.532,31.829 16.547,31.829 C10.564,31.829 5.713,26.979 5.713,20.994 C5.714,15.01 10.565,2.15 16.548,2.15 Z"></path><path fill="#252526" d="M30.286,12.529 L25.866,14.088 C25.866,14.088 26.55,16.168 26.556,16.183 C26.563,16.199 30.96,15.616 30.96,15.616 L30.286,12.529 Z M2.81,12.529 L7.23,14.088 C7.23,14.088 6.547,16.168 6.54,16.183 C6.534,16.199 2.138,15.616 2.138,15.616 L2.811,12.529 L2.81,12.529 Z"></path><path fill="#E0E0E0" d="M12,12.16 C12.6891044,12.1438469 13.2841428,12.6393563 13.393,13.32 C13.533,14.072 13.626,14.833 13.67,15.598 C13.674206,15.8121531 13.6547548,16.026116 13.612,16.236 C13.5608848,15.7224979 13.4881536,15.2113778 13.394,14.704 C13.2851428,14.0233563 12.6901044,13.5278469 12.001,13.544 C10.341,13.561 8.681,13.687 7.037,13.922 C7.193,13.438 7.36,12.952 7.539,12.472 C9.0184704,12.2793603 10.5081178,12.1751751 12,12.16 L12,12.16 Z M27.362,20.513 C23.46,20.312 20.127,19.063 19.375,18.617 C18.788,18.337 18.04,17.742 17.825,16.255 C17.681,17.893 17.99,19.385 19.528,20.122 C19.641,20.19 22.585,21.647 27.336,21.897 C27.3743575,21.4367026 27.3830422,20.9744133 27.362,20.513 L27.362,20.513 Z M5.746,20.513 C9.648,20.312 12.981,19.063 13.733,18.617 C14.32,18.337 15.068,17.742 15.283,16.255 C15.427,17.893 15.118,19.385 13.58,20.122 C13.467,20.19 10.523,21.647 5.772,21.897 C5.73364246,21.4367026 5.72495783,20.9744133 5.746,20.513 Z M21.085,12.16 C20.3958956,12.1438469 19.8008572,12.6393563 19.692,13.32 C19.552,14.072 19.46,14.833 19.416,15.598 C19.411294,15.8121706 19.4307502,16.026189 19.474,16.236 C19.529,15.685 19.605,15.16 19.691,14.704 C19.800666,14.023817 20.3952023,13.5287257 21.084,13.544 C22.745,13.561 24.404,13.687 26.048,13.922 C25.8916915,13.4349199 25.7243148,12.9514614 25.546,12.472 C24.0668607,12.2794 22.5775483,12.1752149 21.086,12.16 L21.085,12.16 Z"></path><path fill="#56555C" d="M7.071,10.988 C8.135,8.408 9.411,6.175 10.761,4.531 C12.6,2.301 14.546,1.171 16.545,1.171 C18.545,1.171 20.491,2.301 22.329,4.529 C23.684,6.171 24.965,8.404 26.019,10.987 L26.071,11.119 L25.939,11.1 C25.563,11.05 25.258,11.014 24.885,10.968 L24.838,10.968 L24.82,10.926 C23.623,8.132 21.58,4.483 18.941,2.959 C18.2180927,2.51884066 17.3912212,2.2786476 16.545,2.263 C15.6991196,2.27882404 14.8726156,2.51901057 14.15,2.959 C11.517,4.481 9.48,8.113 8.273,10.922 L8.255,10.964 L8.209,10.964 C7.833,11.004 7.527,11.041 7.154,11.096 L7.023,11.115 L7.071,10.988 L7.071,10.988 Z M27.486,19.164 C27.192,19.156 26.896,19.144 26.604,19.127 L26.514,19.127 L26.502,19.036 C26.238,16.982 25.648,14.576 24.828,12.265 L24.775,12.092 L24.953,12.116 C25.288,12.161 25.612,12.211 25.928,12.264 L25.993,12.274 L26.014,12.336 C26.804,14.644 27.364,17.025 27.604,19.041 L27.619,19.173 L27.486,19.163 L27.486,19.164 Z"></path><path fill="#252526" d="M26.52,13.96 C26.360779,13.4156783 26.1897385,12.8748837 26.007,12.338 L25.987,12.276 L25.922,12.265 C25.611,12.212 25.282,12.162 24.947,12.117 L24.775,12.092 L24.835,12.262 C25.016,12.774 25.186,13.29 25.345,13.808 C25.907,13.873 26.225,13.918 26.52,13.96 L26.52,13.96 Z"></path><path fill="#56555C" d="M5.572,18.995 C5.812,16.979 6.377,14.598 7.162,12.29 L7.183,12.228 L7.248,12.216 C7.559,12.164 7.888,12.113 8.223,12.069 L8.401,12.045 L8.341,12.214 C7.523,14.525 6.929,16.929 6.668,18.984 L6.656,19.076 L6.566,19.076 C6.273,19.093 5.976,19.105 5.684,19.112 L5.552,19.112 L5.572,18.995 L5.572,18.995 Z"></path><path fill="#252526" d="M7.248,12.216 L7.183,12.226 L7.163,12.289 C6.98025357,12.8268881 6.80921322,13.3686826 6.65,13.914 C7.2,13.844 7.359,13.852 7.819,13.803 C7.981,13.276 8.155,12.739 8.346,12.213 L8.406,12.045 L8.227,12.069 C7.89999558,12.1134214 7.57363016,12.1624262 7.248,12.216 L7.248,12.216 Z"></path><path fill="#56555C" d="M16.548,32.802 C11.6950457,32.802368 7.33549873,29.8349252 5.556,25.32 C4.95803562,23.7900989 4.68162524,22.1534226 4.744,20.512 L4.744,20.438 L4.818,20.438 C5.203,20.428 5.466,20.418 5.74,20.404 L5.826,20.404 L5.826,20.489 C5.61387559,24.9551461 8.19420614,29.0844695 12.3013673,30.8515816 C16.4085284,32.6186937 21.1810255,31.6529351 24.278,28.428 C25.2593494,27.4101114 26.0276881,26.2066075 26.538,24.888 C27.082,23.488 27.325,21.99 27.254,20.491 L27.254,20.405 L27.34,20.405 C27.723,20.425 27.987,20.433 28.262,20.439 L28.336,20.439 L28.336,20.513 C28.4039497,22.1520989 28.1340233,23.7876557 27.543,25.318 C25.7675295,29.8366926 21.405984,32.8070829 16.551,32.8040024 L16.548,32.8040024 L16.548,32.802 Z"></path><path fill="#252526" d="M5.863,21.898 C5.825,21.428 5.815,20.955 5.834,20.483 L5.834,20.397 L5.748,20.397 C5.472,20.412 5.208,20.422 4.826,20.432 L4.752,20.432 L4.752,20.505 C4.736,20.979 4.746,21.453 4.784,21.925 L4.819,21.925 C5.175,21.925 5.523,21.909 5.854,21.893 L5.863,21.898 L5.863,21.898 Z M28.345,20.437 L28.271,20.437 C27.992,20.437 27.728,20.422 27.349,20.403 L27.263,20.403 L27.263,20.488 C27.283,20.956 27.273,21.424 27.236,21.89 L28.316,21.937 C28.354,21.464 28.364,20.991 28.348,20.517 L28.345,20.437 L28.345,20.437 Z"></path><path fill="#252526" d="M28.954,20.678 C26.6952475,20.6864276 24.445226,20.3972736 22.262,19.818 C21.322,19.571 20.407,19.238 19.528,18.827 L19.507,18.811 C17.662,17.929 17.594,16.161 17.766,14.549 C17.809,14.142 17.66,13.603 17.231,13.317 C16.8217025,13.0439161 16.2882975,13.0439161 15.879,13.317 C15.449,13.601 15.3,14.139 15.343,14.545 C15.515,16.158 15.443,17.926 13.603,18.808 L13.582,18.818 C12.7024943,19.2342431 11.7870861,19.5699486 10.847,19.821 C8.66377172,20.4002622 6.41375178,20.689416 4.155,20.681 L4.145,20.681 C3.20778056,20.6696199 2.39589547,20.0281608 2.168,19.119 C1.818,17.766 1.351,15.739 1.297,13.837 C1.27273427,13.0757044 1.7114252,12.3753797 2.407,12.065 C4.947,10.938 10.089,10.514 12.282,10.543 C13.047,10.537 13.782,10.841 14.32,11.385 C15.0216745,11.0561128 15.785163,10.8798969 16.56,10.868 C17.3346989,10.8792095 18.0981933,11.054745 18.8,11.383 C19.3336751,10.84257 20.0624847,10.5398004 20.822,10.543 C22.14,10.523 27.806,10.768 30.705,12.058 C31.3996549,12.3656831 31.838584,13.0636199 31.815,13.823 C31.761,15.728 31.288,17.766 30.949,19.116 C30.7211045,20.0251608 29.9092194,20.6666199 28.972,20.678 L28.954,20.678 L28.954,20.678 Z M21.098,12.244 C20.4473812,12.2295607 19.8855629,12.6966761 19.781,13.339 C19.641,14.089 19.549,14.846 19.504,15.607 C19.494,16.477 19.806,17.072 20.426,17.377 C22.75,18.413 25.45,18.925 28.681,18.941 C28.9286853,18.9397268 29.1447252,18.7724701 29.208,18.533 C29.515,17.333 29.929,15.548 29.977,13.907 C29.9821038,13.74977 29.891037,13.6052509 29.747,13.542 C27.543,12.551 22.82,12.212 21.098,12.239 L21.098,12.244 L21.098,12.244 Z M3.348,13.539 C3.20435474,13.6025589 3.11372656,13.7470099 3.119,13.904 C3.167,15.541 3.581,17.331 3.888,18.53 C3.95,18.77 4.167,18.938 4.415,18.939 C7.649,18.923 10.345,18.411 12.676,17.373 C13.298,17.07 13.609,16.473 13.599,15.6 C13.5541546,14.8398962 13.4613028,14.0833876 13.321,13.335 C13.2163861,12.692292 12.6539949,12.2250549 12.003,12.24 C11,12.224 5.845,12.427 3.349,13.54 L3.348,13.539 Z"></path></g></symbol>
<symbol fill="none" viewBox="0 0 70 70" id="epic-web">
  <path     fill="currentColor"
    d="M36.277 33.738a64.504 64.504 0 0 1-4.257 2.15c-6.333 2.912-15.383 5.86-26.228 5.981l-1.249.014-.226-1.228a31.016 31.016 0 0 1-.531-5.638C3.786 17.804 17.787 3.802 35 3.802a31.05 31.05 0 0 1 13.295 2.975l4.146-2.113A34.774 34.774 0 0 0 35 0C15.712 0 0 15.712 0 35c0 7.7 2.504 14.83 6.74 20.617 7.252-1.235 11.802-4.14 11.802-4.14s-2.905 4.544-4.14 11.798A34.803 34.803 0 0 0 35 70c19.288 0 35-15.712 35-35a34.778 34.778 0 0 0-4.652-17.42l-2.11 4.138a31.037 31.037 0 0 1 2.976 13.299C66.214 52.23 52.213 66.23 35 66.23c-1.942 0-3.804-.196-5.635-.53l-1.231-.225.014-1.251c.12-10.854 3.069-19.903 5.98-26.234a64.386 64.386 0 0 1 2.149-4.253Z"
  ></path>
  <path     fill="currentColor"
    d="m53.235 27.155-8.03-2.344-2.345-8.047L69.5.5 53.235 27.155Z"
  ></path>
  <defs>
    <linearGradient       id="markGradient"
      x1="49.496"
      x2="20.585"
      y1="20.504"
      y2="49.431"
      gradientUnits="userSpaceOnUse"
    >
      <stop stop-color="#4F75FF"></stop>
      <stop offset="1" stop-color="#30AFFF"></stop>
    </linearGradient>
  </defs>
</symbol>
<symbol viewBox="0 0 15 15" fill="none" id="external-link">
  <path     fill-rule="evenodd"
    clip-rule="evenodd"
    d="M3 2C2.44772 2 2 2.44772 2 3V12C2 12.5523 2.44772 13 3 13H12C12.5523 13 13 12.5523 13 12V8.5C13 8.22386 12.7761 8 12.5 8C12.2239 8 12 8.22386 12 8.5V12H3V3L6.5 3C6.77614 3 7 2.77614 7 2.5C7 2.22386 6.77614 2 6.5 2H3ZM12.8536 2.14645C12.9015 2.19439 12.9377 2.24964 12.9621 2.30861C12.9861 2.36669 12.9996 2.4303 13 2.497L13 2.5V2.50049V5.5C13 5.77614 12.7761 6 12.5 6C12.2239 6 12 5.77614 12 5.5V3.70711L6.85355 8.85355C6.65829 9.04882 6.34171 9.04882 6.14645 8.85355C5.95118 8.65829 5.95118 8.34171 6.14645 8.14645L11.2929 3H9.5C9.22386 3 9 2.77614 9 2.5C9 2.22386 9.22386 2 9.5 2H12.4999H12.5C12.5678 2 12.6324 2.01349 12.6914 2.03794C12.7504 2.06234 12.8056 2.09851 12.8536 2.14645Z"
    fill="currentColor"
  ></path>
</symbol>
<symbol viewBox="0 0 15 15" fill="none" id="image">
  <path     fill-rule="evenodd"
    clip-rule="evenodd"
    d="M2.5 1H12.5C13.3284 1 14 1.67157 14 2.5V12.5C14 13.3284 13.3284 14 12.5 14H2.5C1.67157 14 1 13.3284 1 12.5V2.5C1 1.67157 1.67157 1 2.5 1ZM2.5 2C2.22386 2 2 2.22386 2 2.5V8.3636L3.6818 6.6818C3.76809 6.59551 3.88572 6.54797 4.00774 6.55007C4.12975 6.55216 4.24568 6.60372 4.32895 6.69293L7.87355 10.4901L10.6818 7.6818C10.8575 7.50607 11.1425 7.50607 11.3182 7.6818L13 9.3636V2.5C13 2.22386 12.7761 2 12.5 2H2.5ZM2 12.5V9.6364L3.98887 7.64753L7.5311 11.4421L8.94113 13H2.5C2.22386 13 2 12.7761 2 12.5ZM12.5 13H10.155L8.48336 11.153L11 8.6364L13 10.6364V12.5C13 12.7761 12.7761 13 12.5 13ZM6.64922 5.5C6.64922 5.03013 7.03013 4.64922 7.5 4.64922C7.96987 4.64922 8.35078 5.03013 8.35078 5.5C8.35078 5.96987 7.96987 6.35078 7.5 6.35078C7.03013 6.35078 6.64922 5.96987 6.64922 5.5ZM7.5 3.74922C6.53307 3.74922 5.74922 4.53307 5.74922 5.5C5.74922 6.46693 6.53307 7.25078 7.5 7.25078C8.46693 7.25078 9.25078 6.46693 9.25078 5.5C9.25078 4.53307 8.46693 3.74922 7.5 3.74922Z"
    fill="currentColor"
  ></path>
</symbol>
<symbol fill="none" viewBox="0.75 0 94.9 73.06" id="moulton"><path d="M79.3286 67.0905C79.3286 63.7913 82.0031 61.1167 85.3024 61.1167C88.6016 61.1167 91.2762 63.7913 91.2762 67.0905C91.2762 70.3898 88.6016 73.0643 85.3024 73.0643C82.0031 73.0643 79.3286 70.3898 79.3286 67.0905Z" fill="white"></path><path fill-rule="evenodd" clip-rule="evenodd" d="M0.749998 28.5398L0.75 72.8132L20.2798 72.8132L20.2798 30.5253C23.3666 20.9231 36.9524 20.9231 40.0393 30.5253L40.0393 72.8132L57.2714 72.8132L57.8273 28.9011C58.0275 13.0798 45.3184 0.115278 29.4963 0.0007922C13.6539 -0.113839 0.749997 12.697 0.749998 28.5398Z" fill="white"></path><path d="M39.8095 73.0204L39.8095 28.1227C39.8095 12.624 52.4331 0.0913462 67.9314 0.20349C83.8865 0.318937 96.5004 13.7584 95.6054 29.6888L94.6464 46.7585C94.3024 52.8814 89.237 57.6702 83.1044 57.6702L79.0988 57.6702L79.0988 30.7325C76.0119 21.1303 62.4261 21.1303 59.3393 30.7325L59.3393 73.0204L39.8095 73.0204Z" fill="white"></path></symbol>
<symbol viewBox="0 0 15 15" fill="none" id="paper-plane">
  <path     fill-rule="evenodd"
    clip-rule="evenodd"
    d="M1.20308 1.04312C1.00481 0.954998 0.772341 1.0048 0.627577 1.16641C0.482813 1.32802 0.458794 1.56455 0.568117 1.75196L3.92115 7.50002L0.568117 13.2481C0.458794 13.4355 0.482813 13.672 0.627577 13.8336C0.772341 13.9952 1.00481 14.045 1.20308 13.9569L14.7031 7.95693C14.8836 7.87668 15 7.69762 15 7.50002C15 7.30243 14.8836 7.12337 14.7031 7.04312L1.20308 1.04312ZM4.84553 7.10002L2.21234 2.586L13.2689 7.50002L2.21234 12.414L4.84552 7.90002H9C9.22092 7.90002 9.4 7.72094 9.4 7.50002C9.4 7.27911 9.22092 7.10002 9 7.10002H4.84553Z"
    fill="currentColor"
  ></path>
</symbol>
<symbol viewBox="0 0 24 24" fill="none" stroke="currentColor" stroke-width="2" stroke-linecap="round" stroke-linejoin="round" id="pencil">
  <path d="M17 3a2.85 2.83 0 1 1 4 4L7.5 20.5 2 22l1.5-5.5Z"></path>
  <path d="m15 5 4 4"></path>
</symbol>
<symbol viewBox="0 0 15 15" fill="none" id="plus">
  <path     fill-rule="evenodd"
    clip-rule="evenodd"
    d="M8 2.75C8 2.47386 7.77614 2.25 7.5 2.25C7.22386 2.25 7 2.47386 7 2.75V7H2.75C2.47386 7 2.25 7.22386 2.25 7.5C2.25 7.77614 2.47386 8 2.75 8H7V12.25C7 12.5261 7.22386 12.75 7.5 12.75C7.77614 12.75 8 12.5261 8 12.25V8H12.25C12.5261 8 12.75 7.77614 12.75 7.5C12.75 7.22386 12.5261 7 12.25 7H8V2.75Z"
    fill="currentColor"
  ></path>
</symbol>
<symbol role="img" viewBox="0 0 24 24" id="rss"><title>RSS</title><path d="M19.199 24C19.199 13.467 10.533 4.8 0 4.8V0c13.165 0 24 10.835 24 24h-4.801zM3.291 17.415c1.814 0 3.293 1.479 3.293 3.295 0 1.813-1.485 3.29-3.301 3.29C1.47 24 0 22.526 0 20.71s1.475-3.294 3.291-3.295zM15.909 24h-4.665c0-6.169-5.075-11.245-11.244-11.245V8.09c8.727 0 15.909 7.184 15.909 15.91z"></path></symbol>
<symbol viewBox="0 0 24 24" fill="none" stroke="currentColor" stroke-width="2" stroke-linecap="round" stroke-linejoin="round" id="search">
  <circle cx="11" cy="11" r="8" ></circle>
  <path d="m21 21-4.3-4.3" ></path>
</symbol>
</defs>
</svg>
